<svg xmlns="http://www.w3.org/2000/svg" viewBox="0 0 512 512">
  <defs>
    <linearGradient id="bg" x1="0%" y1="0%" x2="100%" y2="100%">
      <stop offset="0%" style="stop-color:#1e293b"/>
      <stop offset="100%" style="stop-color:#0f172a"/>
    </linearGradient>
  </defs>
  <rect width="512" height="512" rx="64" fill="url(#bg)"/>
  <!-- T piece -->
  <rect x="156" y="80" width="60" height="60" rx="8" fill="#a855f7"/>
  <rect x="216" y="80" width="60" height="60" rx="8" fill="#a855f7"/>
  <rect x="276" y="80" width="60" height="60" rx="8" fill="#a855f7"/>
  <rect x="216" y="140" width="60" height="60" rx="8" fill="#a855f7"/>
  <!-- L piece -->
  <rect x="96" y="220" width="60" height="60" rx="8" fill="#f97316"/>
  <rect x="96" y="280" width="60" height="60" rx="8" fill="#f97316"/>
  <rect x="96" y="340" width="60" height="60" rx="8" fill="#f97316"/>
  <rect x="156" y="340" width="60" height="60" rx="8" fill="#f97316"/>
  <!-- I piece -->
  <rect x="236" y="220" width="60" height="60" rx="8" fill="#06b6d4"/>
  <rect x="236" y="280" width="60" height="60" rx="8" fill="#06b6d4"/>
  <rect x="236" y="340" width="60" height="60" rx="8" fill="#06b6d4"/>
  <rect x="236" y="400" width="60" height="60" rx="8" fill="#06b6d4"/>
  <!-- S piece -->
  <rect x="336" y="280" width="60" height="60" rx="8" fill="#22c55e"/>
  <rect x="396" y="280" width="60" height="60" rx="8" fill="#22c55e"/>
  <rect x="276" y="340" width="60" height="60" rx="8" fill="#22c55e"/>
  <rect x="336" y="340" width="60" height="60" rx="8" fill="#22c55e"/>
</svg>
